<?xml version="1.0" encoding="utf-8"?>
<!-- Generator: Adobe Illustrator 16.0.0, SVG Export Plug-In . SVG Version: 6.00 Build 0)  -->
<!DOCTYPE svg PUBLIC "-//W3C//DTD SVG 1.1//EN" "http://www.w3.org/Graphics/SVG/1.1/DTD/svg11.dtd">
<svg version="1.1" id="Layer_1" xmlns="http://www.w3.org/2000/svg" xmlns:xlink="http://www.w3.org/1999/xlink" x="0px" y="0px"
	 width="1070px" height="324px" viewBox="0 0 1070 324" enable-background="new 0 0 1070 324" xml:space="preserve">
<path fill="#FFFFFF" d="M1054.574,182.022v-14.509l4.922,14.509h2.046l4.957-14.27v14.27h2.174v-17.046h-3.057l-4.074,11.867
	c-0.409,1.207-0.722,2.112-0.876,2.735c-0.191-0.58-0.461-1.404-0.834-2.549l-4.045-12.054h-3.358v17.046H1054.574z
	 M1044.495,182.022v-15.034h5.661v-2.012h-13.534v2.012h5.639v15.034H1044.495z M715.222,4.53v30.671h59.818V181.99h30.689V35.201
	h59.798V4.53H715.222z M1037.954,4.53v16.535c0,32.015-26.001,58.071-58.019,58.071v-0.078C947.91,79.058,921.917,53,921.917,21
	V4.53h-30.724v16.535c0.056,43.675,31.783,80.053,73.403,87.335v73.59h30.695v-73.521c41.598-7.28,73.381-43.698,73.381-87.403V4.53
	H1037.954z M686.435,4.53h-30.623v177.46h30.623V4.53z M686.435,181.99 M448.299,4.53h-30.653v177.46h30.653V4.53z M565.031,4.53
	c-48.91,0.038-88.651,39.835-88.651,88.732h-0.081c0,48.926,39.8,88.728,88.732,88.728h59.736v-30.691h-59.736
	c-31.992,0-58.056-26.019-58.056-58.036h0.065c0-32.007,26.023-58.062,58.073-58.062h59.653V4.53H565.031z M239.8,181.99V90.121
	c0-31.992,26.009-58.046,58.042-58.046v0.075c32.007,0,58.059,26.033,58.059,58.059v91.781h30.676V90.121
	c-0.022-48.9-39.802-88.646-88.734-88.646V1.388c-48.91,0-88.71,39.824-88.71,88.732v91.869H239.8z M180.353,4.53v91.869
	c0,48.926-39.787,88.72-88.713,88.72v-0.048c-48.907,0-88.709-39.784-88.731-88.672V4.53h30.676v91.797
	c0,32.024,26.066,58.046,58.056,58.046v0.078c32.005,0,58.052-26.049,58.052-58.052V4.53H180.353z"/>
<path fill="#FFFFFF" d="M396.193,276.463c9.419,0,17.468,7.28,19.079,16.986H377.13C378.784,283.713,386.79,276.463,396.193,276.463
	 M419.875,296.929c-0.025-3.891-0.905-7.63-2.522-11.064c-3.527-7.309-10.172-12.377-17.79-13.547
	c-0.484-0.075-0.976-0.126-1.402-0.179l-0.436-0.033c-0.989-0.07-2.022-0.07-3.087,0l-0.376,0.046
	c-0.436,0.035-0.814,0.08-1.258,0.141l-0.303,0.038c-0.522,0.086-0.993,0.172-1.495,0.3l-0.28,0.063
	c-0.413,0.083-0.814,0.194-1.218,0.333l-0.328,0.088c-0.948,0.287-1.878,0.666-2.804,1.114l-0.239,0.134
	c-0.416,0.167-0.739,0.358-1.125,0.55l-0.232,0.142c-0.443,0.26-0.895,0.552-1.419,0.888c-0.411,0.282-0.79,0.555-1.178,0.832
	l-0.139,0.11c-3.017,2.338-5.497,5.442-7.218,8.98c-1.659,3.459-2.523,7.365-2.523,11.262c0,3.959,0.84,7.762,2.523,11.286
	c3.498,7.268,10.077,12.316,17.617,13.512l0.171,0.032c0.487,0.056,0.981,0.134,1.447,0.164l0.376,0.033
	c0.486,0.038,0.999,0.061,1.556,0.061c0.51,0,1.037-0.022,1.531-0.061l0.436-0.033c0.401-0.03,0.81-0.091,1.256-0.146l0.28-0.035
	c0.486-0.07,0.95-0.174,1.438-0.285l0.338-0.072c0.408-0.089,0.786-0.212,1.165-0.328l0.338-0.111
	c0.945-0.277,1.916-0.652,2.809-1.097l0.26-0.142c0.467-0.199,0.87-0.431,1.304-0.668l0.132-0.075
	c0.443-0.25,0.869-0.515,1.341-0.827c0.429-0.29,0.862-0.605,1.128-0.84l0.27-0.124l0.025-0.08c2.965-2.32,5.416-5.387,7.11-8.877
	c0.575-1.218,1.085-2.541,1.485-3.905l0.323-1.183h-4.481l-0.222,0.622c-2.706,8.294-10.039,13.854-18.265,13.854
	c-9.724,0-17.986-7.734-19.235-18.013c-0.065-0.643-0.091-1.25-0.115-1.932h43.032V296.929z"/>
<path fill="#FFFFFF" d="M590.561,293.45h-38.114c1.629-9.736,9.675-16.986,19.061-16.986
	C580.873,276.463,588.911,283.713,590.561,293.45 M595.198,296.929c-0.022-3.883-0.896-7.61-2.555-11.064
	c-3.495-7.309-10.127-12.377-17.782-13.547c-0.47-0.075-0.959-0.126-1.388-0.179l-0.403-0.033c-1.052-0.061-2.08-0.061-3.116,0
	l-0.401,0.046c-0.421,0.025-0.812,0.08-1.216,0.141l-0.297,0.038c-0.524,0.086-1.034,0.169-1.503,0.3l-0.28,0.063
	c-0.403,0.083-0.819,0.194-1.226,0.325l-0.338,0.096c-0.936,0.308-1.891,0.686-2.824,1.114l-0.239,0.134
	c-0.36,0.167-0.739,0.358-1.12,0.55l-0.295,0.185c-0.408,0.26-0.853,0.524-1.341,0.852c-0.401,0.283-0.787,0.548-1.206,0.825
	l-0.093,0.108c-3.031,2.34-5.53,5.444-7.215,8.982c-1.669,3.459-2.539,7.365-2.539,11.267c0,3.954,0.845,7.757,2.539,11.284
	c3.5,7.295,10.127,12.369,17.772,13.541c0.492,0.063,0.951,0.134,1.442,0.164l0.363,0.033c0.51,0.038,1.021,0.061,1.549,0.061h0.02
	c0.512,0,1.012-0.022,1.531-0.061l0.436-0.033c0.404-0.03,0.814-0.091,1.241-0.136l0.257-0.046c0.507-0.07,1.009-0.174,1.493-0.285
	l0.308-0.072c0.4-0.089,0.805-0.212,1.165-0.328l0.353-0.101c0.961-0.288,1.901-0.656,2.83-1.107l0.252-0.142
	c0.443-0.199,0.872-0.431,1.323-0.69c0.479-0.255,0.931-0.542,1.44-0.88c0.443-0.29,0.872-0.605,1.23-0.878l0.272-0.201l0.025-0.038
	c2.925-2.322,5.346-5.361,6.979-8.801c0.615-1.238,1.109-2.552,1.488-3.896l0.362-1.195h-4.496l-0.191,0.622
	c-2.746,8.294-10.129,13.857-18.319,13.857c-9.701,0-17.979-7.737-19.198-18.005c-0.078-0.661-0.103-1.286-0.146-1.932h43.09
	L595.198,296.929z"/>
<path fill="#FFFFFF" d="M709.17,276.463c9.38,0,17.427,7.25,19.063,16.986h-38.125C691.777,283.713,699.781,276.463,709.17,276.463
	 M732.86,296.929c-0.025-3.883-0.877-7.61-2.531-11.064c-3.503-7.309-10.125-12.377-17.775-13.547
	c-0.499-0.075-0.976-0.126-1.412-0.179l-0.408-0.033c-1.012-0.061-2.058-0.07-3.102,0l-0.394,0.046
	c-0.427,0.035-0.797,0.08-1.241,0.141l-0.297,0.038c-0.5,0.086-0.977,0.172-1.479,0.3l-0.297,0.063
	c-0.403,0.083-0.814,0.194-1.211,0.333l-0.343,0.088c-0.953,0.308-1.871,0.686-2.819,1.114l-0.262,0.134
	c-0.379,0.167-0.741,0.358-1.077,0.55l-0.121,0.083c0,0-0.05,0.021-0.075,0.046l-0.215,0.101c-0.398,0.232-0.797,0.497-1.275,0.8
	c-0.416,0.3-0.845,0.585-1.289,0.942c-2.993,2.323-5.5,5.425-7.191,8.98c-1.694,3.459-2.55,7.365-2.55,11.262
	c0,3.953,0.832,7.762,2.55,11.286c3.457,7.258,10.046,12.316,17.599,13.512l0.146,0.032c0.512,0.056,0.978,0.134,1.447,0.164
	l0.351,0.033c0.555,0.038,1.063,0.061,1.581,0.061c0.524,0,1.036-0.022,1.563-0.061l0.408-0.033c0.403-0.03,0.805-0.091,1.248-0.146
	l0.3-0.035c0.489-0.07,0.974-0.174,1.445-0.285l0.295-0.072c0.421-0.089,0.848-0.212,1.208-0.328l0.346-0.111
	c0.928-0.277,1.86-0.652,2.837-1.097l0.236-0.142c0.429-0.199,0.873-0.431,1.316-0.69c0.462-0.255,0.931-0.542,1.44-0.88
	c0.443-0.29,0.867-0.601,1.232-0.878l0.253-0.201l0.04-0.038c2.938-2.322,5.338-5.354,6.99-8.804
	c0.575-1.24,1.087-2.549,1.503-3.888l0.338-1.2h-4.496l-0.215,0.622c-2.738,8.294-10.062,13.854-18.289,13.854
	c-9.706,0-17.937-7.734-19.221-18.013c-0.08-0.625-0.105-1.23-0.131-1.932h43.042V296.929z"/>
<path fill="#FFFFFF" d="M810.036,276.463c9.424,0,17.47,7.28,19.079,16.986h-38.153
	C792.637,283.713,800.658,276.463,810.036,276.463 M833.709,296.929c-0.01-3.883-0.893-7.61-2.517-11.064
	c-3.515-7.309-10.129-12.377-17.785-13.547c-0.459-0.075-0.95-0.126-1.422-0.179l-0.378-0.033c-1.037-0.061-2.063-0.07-3.1,0
	l-0.418,0.046c-0.404,0.035-0.812,0.08-1.216,0.141l-0.32,0.038c-0.502,0.086-0.976,0.172-1.478,0.3l-0.311,0.063
	c-0.403,0.083-0.776,0.199-1.197,0.333l-0.32,0.088c-0.979,0.308-1.901,0.686-2.827,1.114l-0.239,0.111
	c-0.396,0.189-0.736,0.381-1.13,0.572l-0.373,0.222v0.008c-0.421,0.232-0.827,0.497-1.291,0.8c-0.379,0.282-0.749,0.542-1.143,0.832
	l-0.343,0.274c-2.938,2.32-5.344,5.364-7.008,8.816c-1.694,3.479-2.564,7.373-2.564,11.262c0,3.953,0.87,7.762,2.564,11.286
	c3.485,7.258,10.046,12.316,17.591,13.512l0.172,0.032c0.489,0.056,0.98,0.134,1.433,0.164l0.396,0.033
	c0.507,0.038,1.026,0.061,1.551,0.061h0.021c0.514,0,1.028-0.022,1.636-0.061l0.333-0.033c0.373-0.03,0.774-0.091,1.241-0.146
	l0.257-0.035c0.507-0.07,0.996-0.174,1.488-0.285l0.31-0.072c0.384-0.089,0.805-0.212,1.15-0.328l0.353-0.111
	c0.936-0.277,1.892-0.652,2.845-1.097l0.214-0.142c0.472-0.199,0.898-0.431,1.319-0.668l0.262-0.131l0,0
	c0.379-0.25,0.8-0.494,1.226-0.771c0.381-0.255,0.762-0.54,1.147-0.84l0.301-0.104l0.055-0.174c2.936-2.322,5.354-5.354,7-8.804
	c0.588-1.24,1.09-2.549,1.493-3.905l0.343-1.183h-4.48l-0.228,0.622c-2.723,8.294-10.062,13.854-18.284,13.854
	c-9.724,0-17.962-7.734-19.208-18.002c-0.083-0.661-0.123-1.281-0.166-1.942h43.08L833.709,296.929z"/>
<polygon fill="#FFFFFF" points="374.106,273.236 367.981,273.236 338.718,302.493 338.718,251.27 334.38,251.27 334.38,320.925 
	338.718,320.925 338.718,308.65 338.742,308.635 349.356,298.019 368.334,320.925 374.025,320.925 352.528,294.827 "/>
<polygon fill="#FFFFFF" points="233.643,287.127 207.801,251.257 203.896,251.257 203.896,320.925 208.236,320.925 208.236,259.37 
	233.643,294.71 259.011,259.37 259.011,320.925 263.34,320.925 263.34,251.257 259.502,251.257 "/>
<polygon fill="#FFFFFF" points="469.844,251.27 465.521,251.27 465.521,320.925 505.427,320.925 505.427,316.614 469.844,316.614 
	"/>
<rect x="515.506" y="273.236" fill="#FFFFFF" width="4.308" height="47.689"/>
<path fill="#FFFFFF" d="M550.26,273.236h-13.995v-4.388c0-6.854,6.224-13.085,13.085-13.085h0.91v-4.493h-0.91
	c-9.644,0-17.519,7.877-17.519,17.578v52.077h4.434v-43.276h13.995V273.236z"/>
<path fill="#FFFFFF" d="M746.036,251.27h-4.396v53.376c0,9.698,7.83,17.596,17.476,17.596h0.926v-4.523h-0.926
	c-6.821,0-13.08-6.233-13.08-13.072v-26.987h14.006v-4.423h-14.006V251.27z"/>
<path fill="#FFFFFF" d="M769.808,251.27h-4.395v53.376c0,9.698,7.829,17.596,17.5,17.596h0.926v-4.523h-0.926
	c-6.949,0-13.105-6.103-13.105-13.072v-26.987h14.031v-4.423h-14.031V251.27z"/>
<path fill="#FFFFFF" d="M655.37,281.31h-13.415v-25.776h13.397c7.153,0.179,12.84,5.876,12.961,12.941
	C668.192,275.657,662.529,281.31,655.37,281.31 M659.851,316.649h-17.896v-30.865h17.896c8.436,0,15.312,6.864,15.312,15.334
	C675.162,309.833,668.407,316.649,659.851,316.649 M665.646,282.327c4.421-3.251,7.011-8.284,7.011-13.85
	c0-9.499-7.752-17.207-17.286-17.207h-17.699v69.655h22.18c10.849,0,19.702-8.892,19.702-19.808
	C679.553,292.406,673.816,284.835,665.646,282.327"/>
<path fill="#FFFFFF" d="M868.796,272.045c-3.908,0-7.795,0.888-11.287,2.567c-3.752,1.79-7.03,4.496-9.386,7.767v-9.144h-4.418
	v47.689h4.418v-25.327c0.104-9.628,7.825-17.826,17.992-19.054c0.956-0.126,1.831-0.161,2.681-0.161h0.91v-4.338H868.796z"/>
<path fill="#FFFFFF" d="M297.571,276.463c10.669,0,19.39,9.27,19.39,20.663c0,11.455-8.721,20.773-19.39,20.773
	c-10.679,0-19.394-9.318-19.394-20.773C278.178,285.733,286.893,276.463,297.571,276.463 M316.961,282.788
	c-4.413-6.616-11.714-10.742-19.39-10.742c-13.082,0-23.716,11.262-23.716,25.081c0,13.823,10.634,25.088,23.716,25.088
	c7.832,0,15.002-4.03,19.39-10.694v9.405h4.299v-47.689h-4.299V282.788z"/>
<path fill="#FFFFFF" d="M517.652,260.557c-1.44,0-2.615,1.165-2.615,2.612c0,1.433,1.175,2.622,2.615,2.622
	c1.439,0,2.63-1.189,2.63-2.622C520.282,261.722,519.092,260.557,517.652,260.557"/>
</svg>
