<?xml version="1.0" encoding="utf-8"?>
<!-- Generator: Adobe Illustrator 16.0.0, SVG Export Plug-In . SVG Version: 6.00 Build 0)  -->
<!DOCTYPE svg PUBLIC "-//W3C//DTD SVG 1.1//EN" "http://www.w3.org/Graphics/SVG/1.1/DTD/svg11.dtd">
<svg version="1.1" id="Layer_1" xmlns="http://www.w3.org/2000/svg" xmlns:xlink="http://www.w3.org/1999/xlink" x="0px" y="0px"
	 width="361.148px" height="268px" viewBox="0 0 361.148 268" enable-background="new 0 0 361.148 268" xml:space="preserve">
<path fill="#FFFFFF" d="M117.04,59.034v-0.105c0,0.025-0.025,0.033-0.025,0.065C117.015,59.02,117.04,59.002,117.04,59.034"/>
<path fill="#FFFFFF" d="M217.68,84.221c-0.025-0.083-0.108-0.164-0.189-0.262c0.028,0.062,0.028,0.105,0.111,0.166
	C217.654,84.173,217.654,84.173,217.68,84.221"/>
<path fill="#FFFFFF" d="M244.533,207.949v0.101c0-0.028,0.03-0.053,0.03-0.07c0-0.025-0.03-0.013-0.03-0.013"/>
<path fill="#FFFFFF" d="M143.903,182.732c0.07,0.096,0.131,0.179,0.182,0.267c-0.025-0.045-0.051-0.088-0.051-0.15
	C143.943,182.795,143.926,182.795,143.903,182.732"/>
<path fill="#FFFFFF" d="M27.557,244.977l103.187-69.068c-2.287-4.635-4.416-9.428-6.385-14.338L22.163,229.993
	C24.028,235.329,25.887,240.42,27.557,244.977"/>
<path fill="#FFFFFF" d="M19.071,221.202l101.956-68.243c-2.805-7.693-5.273-15.685-7.341-23.84L11.428,197.593
	C13.64,204.983,16.335,213.136,19.071,221.202"/>
<path fill="#FFFFFF" d="M32.234,257.565c1.568,4.241,2.582,6.868,2.582,6.868l105.756-71.378c-1.226-1.846-2.398-3.747-3.568-5.656
	L32.234,257.565z"/>
<path fill="#FFFFFF" d="M174.416,32.749c0.295,0.164,0.609,0.287,0.942,0.491C139.302,5.943,108.771,5.185,82.688,13.267
	C24.482,31.359-11.118,98.345,7.411,182.682c0.706,3.071,1.594,6.606,2.678,10.455l102.46-68.597
	c-12.245-52.265-7.724-107.287,32.438-102.71c-7.448,0-18.289,3.288-25.002,21.446c-1.304,3.498-2.396,8.799-2.945,15.652
	c25.958-45.158,82.206,1.932,100.45,25.03C204.769,62.29,190.373,43.778,174.416,32.749"/>
<path fill="#FFFFFF" d="M334.44,23.121L231.38,92.154c2.249,4.66,4.337,9.446,6.314,14.358L339.85,38.14
	C337.95,32.812,336.145,27.733,334.44,23.121"/>
<path fill="#FFFFFF" d="M342.91,46.943l-101.913,68.233c2.746,7.704,5.185,15.74,7.218,23.886l102.278-68.494
	C348.353,63.243,345.68,55.056,342.91,46.943"/>
<path fill="#FFFFFF" d="M351.812,75.055l-102.487,68.632c11.885,51.866,7.131,105.985-32.693,101.441
	c7.411,0,18.249-3.263,24.967-21.438c1.331-3.508,2.357-8.816,2.936-15.64c-25.953,45.158-82.176-1.927-100.448-25.051
	c12.722,21.669,27.115,40.19,43.047,51.24c-0.289-0.182-0.552-0.297-0.897-0.486c36.045,27.276,66.574,28.043,92.656,19.938
	c58.189-18.077,93.806-85.075,75.279-169.388C353.552,81.543,352.737,78.411,351.812,75.055"/>
<path fill="#FFFFFF" d="M329.815,10.528c-1.851-4.907-3.094-8.004-3.094-8.004l-105.69,71.388c1.422,2.169,2.804,4.398,4.135,6.657
	L329.815,10.528z"/>
</svg>
